<?xml version="1.0" encoding="UTF-8"?>
<svg width="512px" height="512px" viewBox="0 0 512 512" version="1.1" xmlns="http://www.w3.org/2000/svg" xmlns:xlink="http://www.w3.org/1999/xlink">
    <title>512x512 white</title>
    <g id="512x512-white" stroke="none" stroke-width="1" fill="none" fill-rule="evenodd">
        <g id="cloud" transform="translate(41, 99)" stroke="#FFFFFF" stroke-width="35">
            <path d="M91.3398693,313.366013 C40.829022,312.985127 0,271.922393 0,221.323529 C0,170.489869 41.2088236,129.281046 92.0424837,129.281046 C97.6742626,129.281046 103.187906,129.786846 108.540464,130.755496 C113.552685,57.7030918 174.400448,0 248.72549,0 C326.334132,0 389.248366,62.9142345 389.248366,140.522876 C389.248366,146.9358 388.818789,153.248392 387.986841,159.433444 C413.057916,173.510605 430,200.35685 430,231.160131 C430,276.107175 393.927589,312.629057 349.153542,313.355 L348.473,313.36 L92.044,313.366 L91.3398693,313.366013 Z" id="icon"></path>
        </g>
    </g>
</svg>